<svg width="960" height="600" viewBox="0 0 960 600" fill="none" xmlns="http://www.w3.org/2000/svg">
  <rect width="960" height="600" fill="#F4F7FB"/>
  <rect x="94" y="68" width="348" height="464" rx="28" fill="white" stroke="#D8E3F2" stroke-width="2"/>
  <rect x="138" y="116" width="130" height="24" rx="12" fill="#0A1325"/>
  <rect x="138" y="170" width="236" height="14" rx="7" fill="#9DB0CC"/>
  <rect x="138" y="204" width="188" height="14" rx="7" fill="#D8E3F2"/>
  <rect x="138" y="260" width="248" height="1" fill="#D8E3F2"/>
  <rect x="138" y="300" width="212" height="14" rx="7" fill="#2B6FF2"/>
  <rect x="138" y="334" width="248" height="14" rx="7" fill="#D8E3F2"/>
  <rect x="138" y="368" width="220" height="14" rx="7" fill="#D8E3F2"/>
  <rect x="518" y="68" width="348" height="464" rx="28" fill="white" stroke="#D8E3F2" stroke-width="2"/>
  <rect x="562" y="116" width="168" height="24" rx="12" fill="#0A1325"/>
  <rect x="562" y="170" width="240" height="138" rx="22" fill="#E8EEF8"/>
  <rect x="592" y="206" width="104" height="16" rx="8" fill="#F97316"/>
  <rect x="592" y="244" width="176" height="14" rx="7" fill="#9DB0CC"/>
  <rect x="562" y="350" width="240" height="14" rx="7" fill="#2B6FF2"/>
  <rect x="562" y="386" width="204" height="14" rx="7" fill="#D8E3F2"/>
  <rect x="562" y="422" width="180" height="14" rx="7" fill="#D8E3F2"/>
</svg>
