<svg width="960" height="600" viewBox="0 0 960 600" fill="none" xmlns="http://www.w3.org/2000/svg">
  <rect width="960" height="600" fill="#F4F7FB"/>
  <rect x="72" y="72" width="816" height="456" rx="32" fill="white" stroke="#D8E3F2" stroke-width="2"/>
  <rect x="112" y="112" width="248" height="28" rx="14" fill="#0A1325"/>
  <rect x="112" y="160" width="184" height="18" rx="9" fill="#9DB0CC"/>
  <rect x="112" y="224" width="300" height="232" rx="24" fill="#E8EEF8"/>
  <rect x="148" y="260" width="92" height="92" rx="24" fill="#2B6FF2"/>
  <rect x="266" y="268" width="96" height="16" rx="8" fill="#0A1325"/>
  <rect x="266" y="304" width="112" height="14" rx="7" fill="#9DB0CC"/>
  <rect x="266" y="334" width="76" height="14" rx="7" fill="#9DB0CC"/>
  <rect x="452" y="224" width="356" height="52" rx="18" fill="#FFF7ED" stroke="#F97316" stroke-width="2"/>
  <rect x="480" y="243" width="180" height="14" rx="7" fill="#F97316"/>
  <rect x="452" y="300" width="356" height="52" rx="18" fill="#EFF6FF" stroke="#2B6FF2" stroke-width="2"/>
  <rect x="480" y="319" width="220" height="14" rx="7" fill="#2B6FF2"/>
  <rect x="452" y="376" width="356" height="52" rx="18" fill="#F4F7FB" stroke="#D8E3F2" stroke-width="2"/>
  <rect x="480" y="395" width="150" height="14" rx="7" fill="#5B6E8A"/>
  <rect x="112" y="480" width="696" height="16" rx="8" fill="#D8E3F2"/>
</svg>
