<svg width="300" height="72" viewBox="0 0 300 72" fill="none" xmlns="http://www.w3.org/2000/svg">
  <rect width="300" height="72" rx="12" fill="white"/>
  <path d="M24 18H36.8V32.2L50 18H65.4L50.7 33.1L66.1 54H50.8L42.2 42L36.8 47.5V54H24V18Z" fill="#201A19"/>
  <circle cx="79.5" cy="36" r="19.5" fill="#0C4A88"/>
  <path d="M79.5 16.5C88.4 16.5 96.3 22.5 98.6 31.1C90.8 24.1 78.6 24.7 71.6 32.5C67.1 37.5 65.3 44.2 66 50.5C58.1 43.3 57 31.1 64.2 23.2C68 18.9 73.5 16.5 79.5 16.5Z" fill="#F7024B"/>
  <path d="M99 41C96.7 49.5 88.8 55.5 79.9 55.5C70.9 55.5 63.1 49.4 60.8 40.8C68.6 47.8 80.8 47.2 87.8 39.4C92.3 34.4 94 27.8 93.4 21.5C101.2 28.6 102.3 40.8 95.2 48.7C91.4 53.1 85.9 55.5 79.9 55.5C79.7 55.5 79.3 55.5 99 41Z" fill="#F7024B" fill-opacity="0"/>
  <path d="M110.5 24.8H117.1V54H110.5V24.8Z" fill="#201A19"/>
  <path d="M124.8 24.8H131.1L145.6 43.6V24.8H152.2V54H146.6L131.4 34.4V54H124.8V24.8Z" fill="#201A19"/>
  <path d="M158.3 49.7L162.3 45C166 48.1 169.7 49.8 174.3 49.8C178.2 49.8 180.7 48 180.7 45.4C180.7 42.8 179.2 41.4 172.4 39.8C164.5 37.8 160 35.4 160 31.1C160 25.9 164.3 22.3 170.4 22.3C175.1 22.3 178.9 23.7 182.4 26.6L178.8 31.5C175.4 29 172 27.7 170.2 27.7C166.5 27.7 164.4 29.6 164.4 31.9C164.4 34.7 166.2 36 173.2 37.7C181 39.6 185.1 42.4 185.1 46.2C185.1 51.9 180.6 55.2 174.1 55.2C169.2 55.2 163.7 53.5 158.3 49.7Z" fill="#201A19"/>
  <path d="M198.3 30.9H189V24.8H214.3V30.9H205V54H198.3V30.9Z" fill="#201A19"/>
  <path d="M219.3 24.8H230.8C237.6 24.8 241.9 28.7 241.9 34.7C241.9 41.4 236.5 44.9 230.2 44.9H225.9V54H219.3V24.8ZM230.3 38.9C234.2 38.9 236.6 36.7 236.6 34.1C236.6 31.1 234.2 29.5 230.3 29.5H225.9V38.9H230.3Z" fill="#201A19"/>
  <path d="M253.9 24.6H260.1L272.9 54H265.9L263 47.2H250L247.2 54H240.3L253.9 24.6ZM260.8 41.3L256.1 30.5L251.4 41.3H260.8Z" fill="#201A19"/>
</svg>
