<svg width="360" height="88" viewBox="0 0 360 88" fill="none" xmlns="http://www.w3.org/2000/svg">
  <rect width="360" height="88" rx="12" fill="white"/>
  <g opacity="0.95">
    <path d="M42.5 18C31.5 23.5 25.5 33 25.5 43.5C25.5 58.5 38 69.5 54.5 69.5C55.8 69.5 57.4 69.4 58.5 69.1C49.8 60.6 44.4 50.2 42.8 37.2C42 30.9 42 25.3 42.5 18Z" stroke="#67C36B" stroke-width="7" stroke-linecap="round" stroke-linejoin="round"/>
    <path d="M70.3 11.8C80.7 18.1 86.4 27.1 86.4 37C86.4 49.4 77.8 58.5 65 62.2C67.2 51.1 66.8 40.4 63 30.3C60.7 24 57.2 18.1 52.5 12.5C58.6 10.2 64.9 9.8 70.3 11.8Z" stroke="#B8D64D" stroke-width="7" stroke-linecap="round" stroke-linejoin="round"/>
    <path d="M58 13.5C67.5 20.4 73.1 29.7 74.3 40.9C75.9 55.8 68.8 69.6 56.8 78C55.9 66.1 51.9 54.8 44.5 45.6C39.5 39.4 33.5 34.4 26.5 30.4C31.6 22.8 39.1 16.6 48.7 13.2C51.8 12.1 54.9 11.7 58 13.5Z" stroke="#67C36B" stroke-width="7" stroke-linecap="round" stroke-linejoin="round"/>
  </g>
  <g fill="#202126">
    <path d="M132.4 33.2C126.2 33.2 121.5 37.2 121.5 42.8C121.5 48.6 126.4 52.3 133.5 53.8C139.3 55 141.5 56.4 141.5 59.2C141.5 62.2 138.7 64.1 134.5 64.1C129.7 64.1 125.6 62 121.7 58.2L117 63.8C121.8 68.4 127.9 70.9 134.4 70.9C142.5 70.9 149.1 66.8 149.1 58.7C149.1 51.4 144.5 48 135.8 46.1C129.3 44.7 127.8 43.3 127.8 40.8C127.8 38.1 130.3 36.3 134 36.3C137.8 36.3 141.1 37.8 144.5 40.6L148.7 34.7C144.6 31.2 139.2 29.3 132.4 33.2Z"/>
    <path d="M158.9 33.9H186.8V40.7H166.5V49.2H184.5V56H166.5V64.9H187.1V71.7H158.9V33.9Z"/>
    <path d="M204.7 33.2C193.1 33.2 184.4 41.8 184.4 52.5C184.4 63.3 193 71.8 204.6 71.8C216.1 71.8 224.9 63.2 224.9 52.5C224.9 41.7 216.2 33.2 204.7 33.2ZM204.7 64.8C197.8 64.8 192.3 59.1 192.3 52.5C192.3 45.8 197.6 40.2 204.6 40.2C211.5 40.2 216.9 45.9 216.9 52.5C216.9 59.2 211.6 64.8 204.7 64.8Z"/>
  </g>
  <g fill="#8A8F98">
    <path d="M233.7 33.9H241.3V64.7H260.6V71.7H233.7V33.9Z"/>
    <path d="M267.4 33.9H295.2V40.7H274.9V49.2H292.9V56H274.9V64.9H295.6V71.7H267.4V33.9Z"/>
    <path d="M314.4 33.2C308.2 33.2 303.5 37.2 303.5 42.8C303.5 48.6 308.3 52.3 315.5 53.8C321.2 55 323.5 56.4 323.5 59.2C323.5 62.2 320.6 64.1 316.4 64.1C311.7 64.1 307.6 62 303.6 58.2L299 63.8C303.7 68.4 309.9 70.9 316.4 70.9C324.5 70.9 331.1 66.8 331.1 58.7C331.1 51.4 326.5 48 317.8 46.1C311.3 44.7 309.7 43.3 309.7 40.8C309.7 38.1 312.3 36.3 316 36.3C319.8 36.3 323.1 37.8 326.5 40.6L330.7 34.7C326.5 31.2 321.2 29.3 314.4 33.2Z"/>
  </g>
</svg>
