<svg width="106" height="33" viewBox="0 0 106 33" fill="none" xmlns="http://www.w3.org/2000/svg">
<path d="M57.6934 8.12305V9.9707C57.6826 12.4199 57.6826 15.1699 56.8984 19.3164L54.1484 19.0371C54.9004 15.3418 54.9326 12.5918 54.9434 10.293H43.4277V8.12305H57.6934ZM41.5801 23.5918V21.3574H47.9609V14.6328H50.6895V21.3574H59.4121V23.5918H41.5801ZM77.9858 15.6855V17.877H60.1537V15.6855H64.1713V13.3438C62.7426 12.71 61.937 11.7432 61.937 10.4863C61.937 8.12305 64.7192 6.71582 69.0698 6.70508C73.3881 6.71582 76.1704 8.12305 76.1811 10.4863C76.1704 11.7646 75.3432 12.7422 73.8823 13.3652V15.6855H77.9858ZM62.1948 22.4102C62.1948 20.1543 64.7621 18.8975 69.0483 18.9082C73.27 18.8975 75.8373 20.1543 75.8588 22.4102C75.8373 24.7197 73.27 25.9551 69.0483 25.9551C64.7621 25.9551 62.1948 24.7197 62.1948 22.4102ZM64.7944 10.4863C64.7729 11.5605 66.309 12.1084 69.0698 12.0977C71.7983 12.1084 73.3452 11.5605 73.3452 10.4863C73.3452 9.39062 71.7983 8.81055 69.0698 8.81055C66.309 8.81055 64.7729 9.39062 64.7944 10.4863ZM64.9877 22.4102C64.977 23.4092 66.3412 23.9141 69.0483 23.9141C71.7016 23.9141 73.0981 23.4092 73.1088 22.4102C73.0981 21.4434 71.7016 20.9814 69.0483 20.9707C66.3412 20.9814 64.977 21.4434 64.9877 22.4102ZM66.9428 15.6855H71.1537V14.042C70.5092 14.1279 69.811 14.1602 69.0698 14.1602C68.3071 14.1602 67.5981 14.1172 66.9428 14.042V15.6855ZM79.372 24L79.3505 21.6582L84.9364 16.5234C86.3866 15.1377 87.1708 14.2783 87.1708 13.043C87.1708 11.6572 86.1288 10.7979 84.7001 10.8086C83.2391 10.7979 82.2831 11.7217 82.2938 13.2148H79.2216C79.2108 10.1748 81.4667 8.23047 84.743 8.23047C88.0731 8.23047 90.286 10.1318 90.286 12.8281C90.286 14.6006 89.4266 16.0508 86.2255 18.9512L83.8622 21.25V21.3359H90.5009V24H79.372ZM91.7581 21.25V18.6934L98.3323 8.44531H102.393V18.6504H104.369V21.25H102.393V24H99.3206V21.25H91.7581ZM95.0238 18.6504H99.3636V11.9902H99.2132L95.0238 18.5215V18.6504Z" fill="#111111"/>
<path d="M24.7217 15.2752C21.9399 13.3858 18.3793 14.1582 16.5069 16.9981C14.9436 19.3747 12.5897 19.6658 11.6743 19.6658C8.70224 19.6658 6.6634 17.5744 6.06304 15.4118C6.06304 15.4118 6.05115 15.3702 6.04521 15.3524C6.04521 15.3286 6.03332 15.3049 6.02738 15.2811C5.78961 14.378 5.73017 13.9443 5.73017 12.9877C5.73017 7.80691 11.0442 2.04382 18.7003 2.04382C26.3564 2.04382 31.0226 8.00891 32.1757 11.3182C32.1579 11.2588 32.1401 11.1994 32.1163 11.14C29.8872 4.66394 23.741 0 16.501 0C7.38859 0 0 7.38507 0 16.4931C0 24.6327 5.87283 31.6079 14.0223 31.6079C20.5252 31.6079 24.8882 27.9658 26.8973 22.9454C27.997 20.2005 27.2183 16.9744 24.7217 15.2752Z" fill="#003668"/>
<path d="M32.275 11.6403C31.3121 8.40817 26.7945 2.03906 18.6986 2.03906C11.0425 2.03906 5.73438 7.80215 5.73438 12.977C5.73438 13.9395 5.79382 14.3673 6.03158 15.2704C5.93053 14.8723 5.87704 14.4802 5.87704 14.094C5.87704 8.70523 11.2803 4.96814 16.8262 4.96814C24.3396 4.96814 30.4324 11.058 30.4324 18.5678C30.4324 24.4557 27.0442 29.5534 22.1165 32.0012C28.4648 29.7078 33.0002 23.6299 33.0002 16.4943C33.0002 14.807 32.7743 13.3157 32.275 11.6403Z" fill="#E6002D"/>
</svg>
